:FULLY-SPECIFIED
:FORCE-ALL-JOINTS-BE-3DOF
:DEGREES
162
root 8.31216 16.2914 -14.1122 6.88895 9.66163 -0.847524
lfemur 0.671851 5.4863 -12.6685
ltibia 30.2703 0 0
lfoot 5.85846 4.74841 0
ltoes -10.9364 0 0
rfemur -29.1439 2.90243 24.1113
rtibia 27.9016 0 0
rfoot -14.7749 0.45818 0
rtoes -9.95535 0 0
lowerback -5.6082 -2.29984 -0.534863
upperback -1.28239 -3.1092 3.52641
thorax 2.12024 -1.56122 3.71333
lowerneck -18.6763 -6.55922 -14.5883
upperneck 15.6575 -7.88825 14.2963
head 9.17982 -3.1792 6.29411
lclavicle 3.02648e-14 -2.35241e-14 0
lhumerus -41.7354 0.0837794 90.4166
lradius 19.6144 0 0
lwrist -7.9768 0 0
lhand -7.06689 -20.851 0
lfingers 7.12502 0 0
lthumb 18.8041 8.22825 0
rclavicle 3.02648e-14 -2.35241e-14 0
rhumerus -43.7389 6.35887 -80.394
rradius 34.6858 0 0
rwrist -18.3658 0 0
rhand -31.3504 -24.6615 0
rfingers 7.12502 0 0
rthumb -4.62142 -54.5871 0
163
root 8.30162 16.2965 -13.985 6.87826 9.59519 -1.01004
lfemur -0.564677 5.28095 -12.6166
ltibia 29.9895 0 0
lfoot 5.26848 4.95232 0
ltoes -11.3079 0 0
rfemur -28.2744 3.04803 24.4841
rtibia 26.9244 0 0
rfoot -15.2594 0.688159 0
rtoes -9.71887 0 0
lowerback -5.60895 -2.18722 -0.406809
upperback -1.24948 -2.96769 3.55284
thorax 2.14619 -1.49034 3.67951
lowerneck -18.5539 -6.57798 -14.6002
upperneck 15.5851 -7.92959 14.342
head 9.14222 -3.19977 6.30527
lclavicle 2.89851e-14 -2.32318e-14 0
lhumerus -42.0929 -0.224053 90.6647
lradius 19.9158 0 0
lwrist -7.32197 0 0
lhand -7.27442 -20.9629 0
lfingers 7.12502 0 0
lthumb 18.6043 8.13315 0
rclavicle 2.89851e-14 -2.32318e-14 0
rhumerus -43.3825 6.50498 -80.3299
rradius 35.3173 0 0
rwrist -18.6668 0 0
rhand -31.4585 -24.8268 0
rfingers 7.12502 0 0
rthumb -4.72573 -54.75 0
164
root 8.29128 16.3018 -13.8588 6.8688 9.51811 -1.16866
lfemur -1.80321 5.08164 -12.5753
ltibia 29.7184 0 0
lfoot 4.67691 5.15404 0
ltoes -11.6633 0 0
rfemur -27.4027 3.18819 24.8449
rtibia 25.9831 0 0
rfoot -15.719 0.91045 0
rtoes -9.49351 0 0
lowerback -5.60965 -2.07396 -0.28219
upperback -1.21776 -2.82508 3.57736
thorax 2.17074 -1.41888 3.64569
lowerneck -18.4349 -6.59547 -14.6109
upperneck 15.5159 -7.9691 14.3862
head 9.10597 -3.21942 6.31607
lclavicle 2.77015e-14 -2.29297e-14 0
lhumerus -42.4423 -0.531459 90.9074
lradius 20.2134 0 0
lwrist -6.67586 0 0
lhand -7.47935 -21.0741 0
lfingers 7.12502 0 0
lthumb 18.407 8.0385 0
rclavicle 2.77015e-14 -2.29297e-14 0
rhumerus -43.034 6.65073 -80.2712
rradius 35.941 0 0
rwrist -18.9647 0 0
rhand -31.5635 -24.9921 0
rfingers 7.12502 0 0
rthumb -4.82715 -54.9129 0
165
root 8.28114 16.3073 -13.7336 6.86053 9.43079 -1.32338
lfemur -3.04273 4.88834 -12.5441
ltibia 29.4569 0 0
lfoot 4.08426 5.35346 0
ltoes -12.0029 0 0
rfemur -26.5296 3.32297 25.1937
rtibia 25.0774 0 0
rfoot -16.154 1.12513 0
rtoes -9.27908 0 0
lowerback -5.6103 -1.96015 -0.16099
upperback -1.1872 -2.68149 3.59999
thorax 2.19392 -1.34692 3.61189
lowerneck -18.3193 -6.61172 -14.6203
upperneck 15.45 -8.00683 14.4291
head 9.07104 -3.23814 6.32651
lclavicle 2.6415e-14 -2.26183e-14 0
lhumerus -42.7837 -0.838216 91.1447
lradius 20.5071 0 0
lwrist -6.03871 0 0
lhand -7.68161 -21.1847 0
lfingers 7.12502 0 0
lthumb 18.2123 7.94435 0
rclavicle 2.6415e-14 -2.26183e-14 0
rhumerus -42.6935 6.79601 -80.2177
rradius 36.5565 0 0
rwrist -19.2594 0 0
rhand -31.6656 -25.1572 0
rfingers 7.12502 0 0
rthumb -4.92569 -55.0756 0
166
root 8.27123 16.313 -13.6093 6.85343 9.33362 -1.47421
lfemur -4.28225 4.70102 -12.5229
ltibia 29.205 0 0
lfoot 3.49103 5.55051 0
ltoes -12.3268 0 0
rfemur -25.6557 3.45243 25.5306
rtibia 24.2068 0 0
rfoot -16.565 1.33226 0
rtoes -9.0754 0 0
lowerback -5.61089 -1.84591 -0.0431968
upperback -1.1578 -2.53708 3.62079
thorax 2.21576 -1.27455 3.57814
lowerneck -18.2071 -6.62675 -14.6285
upperneck 15.3871 -8.0428 14.4707
head 9.03742 -3.25597 6.33659
lclavicle 2.51269e-14 -2.22982e-14 0
lhumerus -43.117 -1.14411 91.3765
lradius 20.7969 0 0
lwrist -5.41072 0 0
lhand -7.88112 -21.2945 0
lfingers 7.12502 0 0
lthumb 18.0203 7.85075 0
rclavicle 2.51269e-14 -2.22982e-14 0
rhumerus -42.3609 6.94071 -80.1693
rradius 37.1638 0 0
rwrist -19.5509 0 0
rhand -31.7646 -25.3219 0
rfingers 7.12502 0 0
rthumb -5.02136 -55.238 0
167
root 8.26157 16.319 -13.4858 6.84746 9.227 -1.62115
lfemur -5.52075 4.51963 -12.5114
ltibia 28.9625 0 0
lfoot 2.89772 5.74511 0
ltoes -12.6354 0 0
rfemur -24.7818 3.57665 25.8557
rtibia 23.3709 0 0
rfoot -16.9523 1.53193 0
rtoes -8.8823 0 0
lowerback -5.61143 -1.73134 0.0712032
upperback -1.12953 -2.39198 3.63979
thorax 2.23627 -1.20182 3.54445
lowerneck -18.0983 -6.6406 -14.6355
upperneck 15.3274 -8.07703 14.5108
head 9.00511 -3.2729 6.34631
lclavicle 2.38381e-14 -2.19698e-14 0
lhumerus -43.4422 -1.44891 91.6029
lradius 21.0825 0 0
lwrist -4.79211 0 0
lhand -8.07782 -21.4035 0
lfingers 7.12502 0 0
lthumb 17.8309 7.75777 0
rclavicle 2.38381e-14 -2.19698e-14 0
rhumerus -42.0362 7.08475 -80.1258
rradius 37.7625 0 0
rwrist -19.8389 0 0
rhand -31.8608 -25.4861 0
rfingers 7.12502 0 0
rthumb -5.11418 -55.4 0
168
root 8.25216 16.3251 -13.3631 6.8426 9.11131 -1.76419
lfemur -6.75723 4.34413 -12.5091
ltibia 28.7293 0 0
lfoot 2.30483 5.93718 0
ltoes -12.9287 0 0
rfemur -23.9087 3.69568 26.1692
rtibia 22.5693 0 0
rfoot -17.3164 1.72421 0
rtoes -8.69959 0 0
lowerback -5.61192 -1.61655 0.182224
upperback -1.10239 -2.24635 3.65704
thorax 2.25549 -1.1288 3.51087
lowerneck -17.9929 -6.65328 -14.6413
upperneck 15.2707 -8.10955 14.5497
head 8.97407 -3.28897 6.35568
lclavicle 2.25497e-14 -2.16338e-14 0
lhumerus -43.7593 -1.7524 91.8239
lradius 21.3641 0 0
lwrist -4.18309 0 0
lhand -8.27162 -21.5116 0
lfingers 7.12502 0 0
lthumb 17.6444 7.66546 0
rclavicle 2.25497e-14 -2.16338e-14 0
rhumerus -41.7196 7.22802 -80.0871
rradius 38.3524 0 0
rwrist -20.1234 0 0
rhand -31.954 -25.6497 0
rfingers 7.12502 0 0
rthumb -5.20416 -55.5614 0
169
root 8.24302 16.3313 -13.2411 6.8388 8.98696 -1.90335
lfemur -7.99069 4.17449 -12.5159
ltibia 28.5054 0 0
lfoot 1.71285 6.12661 0
ltoes -13.2072 0 0
rfemur -23.037 3.8096 26.4712
rtibia 21.8016 0 0
rfoot -17.6577 1.90917 0
rtoes -8.52709 0 0
lowerback -5.61236 -1.50163 0.289879
upperback -1.07637 -2.10032 3.67258
thorax 2.27344 -1.05559 3.47741
lowerneck -17.8908 -6.66483 -14.6461
upperneck 15.217 -8.1404 14.5872
head 8.94431 -3.30417 6.3647
lclavicle 2.1263e-14 -2.12907e-14 0
lhumerus -44.0684 -2.05437 92.0393
lradius 21.6413 0 0
lwrist -3.58389 0 0
lhand -8.46246 -21.6188 0
lfingers 7.12502 0 0
lthumb 17.4607 7.57388 0
rclavicle 2.1263e-14 -2.12907e-14 0
rhumerus -41.4109 7.37042 -80.0532
rradius 38.9334 0 0
rwrist -20.4042 0 0
rhand -32.0442 -25.8126 0
rfingers 7.12502 0 0
rthumb -5.29132 -55.7223 0
170
root 8.23418 16.3377 -13.1197 6.83604 8.85434 -2.03862
lfemur -9.22012 4.01066 -12.5313
ltibia 28.2905 0 0
lfoot 1.12229 6.31335 0
ltoes -13.471 0 0
rfemur -22.1675 3.91847 26.7617
rtibia 21.0673 0 0
rfoot -17.9767 2.08688 0
rtoes -8.36463 0 0
lowerback -5.61275 -1.38671 0.394181
upperback -1.05145 -1.95404 3.68645
thorax 2.29015 -0.982235 3.4441
lowerneck -17.7921 -6.67527 -14.6497
upperneck 15.1663 -8.16959 14.6233
head 8.91579 -3.31854 6.37338
lclavicle 1.99789e-14 -2.0941e-14 0
lhumerus -44.3693 -2.35458 92.2493
lradius 21.9141 0 0
lwrist -2.99471 0 0
lhand -8.65026 -21.7249 0
lfingers 7.12502 0 0
lthumb 17.2799 7.4831 0
rclavicle 1.99789e-14 -2.0941e-14 0
rhumerus -41.1102 7.51185 -80.0239
rradius 39.5051 0 0
rwrist -20.6811 0 0
rhand -32.1316 -25.9747 0
rfingers 7.12502 0 0
rthumb -5.37567 -55.8823 0
171
root 8.22565 16.3443 -12.9989 6.83429 8.71385 -2.17001
lfemur -10.4445 3.8526 -12.5552
ltibia 28.0847 0 0
lfoot 0.533648 6.49729 0
ltoes -13.7204 0 0
rfemur -21.3009 4.02235 27.0408
rtibia 20.366 0 0
rfoot -18.2738 2.25742 0
rtoes -8.21202 0 0
lowerback -5.61309 -1.27189 0.495145
upperback -1.02761 -1.80766 3.69869
thorax 2.30564 -0.90882 3.41096
lowerneck -17.6966 -6.68463 -14.6523
upperneck 15.1185 -8.19715 14.6582
head 8.88852 -3.33207 6.38171
lclavicle 1.86986e-14 -2.05852e-14 0
lhumerus -44.6621 -2.65283 92.4538
lradius 22.1824 0 0
lwrist -2.41577 0 0
lhand -8.83494 -21.83 0
lfingers 7.12502 0 0
lthumb 17.1021 7.39315 0
rclavicle 1.86986e-14 -2.05852e-14 0
rhumerus -40.8175 7.65222 -79.999
rradius 40.0674 0 0
rwrist -20.9541 0 0
rhand -32.2161 -26.1358 0
rfingers 7.12502 0 0
rthumb -5.45722 -56.0415 0
172
root 8.21744 16.351 -12.8786 6.83351 8.56587 -2.29751
lfemur -11.6629 3.70029 -12.5872
ltibia 27.8878 0 0
lfoot -0.0525781 6.67836 0
ltoes -13.9555 0 0
rfemur -20.4379 4.12131 27.3088
rtibia 19.6973 0 0
rfoot -18.5494 2.42085 0
rtoes -8.06909 0 0
lowerback -5.61339 -1.15727 0.592784
upperback -1.00486 -1.6613 3.70934
thorax 2.31993 -0.835414 3.37802
lowerneck -17.6045 -6.69293 -14.6538
upperneck 15.0735 -8.22312 14.6917
head 8.86247 -3.34479 6.38971
lclavicle 1.74232e-14 -2.0224e-14 0
lhumerus -44.9468 -2.94889 92.6527
lradius 22.4461 0 0
lwrist -1.8473 0 0
lhand -9.01644 -21.9339 0
lfingers 7.12502 0 0
lthumb 16.9274 7.30412 0
rclavicle 1.74232e-14 -2.0224e-14 0
rhumerus -40.5328 7.79143 -79.9784
rradius 40.62 0 0
rwrist -21.223 0 0
rhand -32.2976 -26.2959 0
rfingers 7.12502 0 0
rthumb -5.536 -56.1996 0
173
root 8.20957 16.3578 -12.7587 6.83368 8.4108 -2.42114
lfemur -12.8742 3.55366 -12.6271
ltibia 27.6997 0 0
lfoot -0.635888 6.85647 0
ltoes -14.1767 0 0
rfemur -19.5794 4.21541 27.5656
rtibia 19.0608 0 0
rfoot -18.8041 2.57727 0
rtoes -7.93566 0 0
lowerback -5.61364 -1.04296 0.687112
upperback -0.983159 -1.51513 3.71845
thorax 2.33305 -0.762089 3.34532
lowerneck -17.5156 -6.70021 -14.6544
upperneck 15.0313 -8.24751 14.724
head 8.83763 -3.35671 6.39737
lclavicle 1.61537e-14 -1.98578e-14 0
lhumerus -45.2233 -3.24254 92.8461
lradius 22.7051 0 0
lwrist -1.2895 0 0
lhand -9.19467 -22.0367 0
lfingers 7.12502 0 0
lthumb 16.7558 7.21605 0
rclavicle 1.61537e-14 -1.98578e-14 0
rhumerus -40.2562 7.92937 -79.9621
rradius 41.1627 0 0
rwrist -21.4878 0 0
rhand -32.3764 -26.4547 0
rfingers 7.12502 0 0
rthumb -5.61201 -56.3566 0
